<?xml version="1.0" encoding="UTF-8" standalone="no"?>
<!DOCTYPE svg PUBLIC "-//W3C//DTD SVG 1.1//EN"
 "http://www.w3.org/Graphics/SVG/1.1/DTD/svg11.dtd">
<!-- Generated by graphviz version 2.43.0 (0)
 -->
<!-- Title: Hypothetical Pages: 1 -->
<svg width="685pt" height="494pt"
 viewBox="0.00 0.00 684.50 494.00" xmlns="http://www.w3.org/2000/svg" xmlns:xlink="http://www.w3.org/1999/xlink">
<g id="graph0" class="graph" transform="scale(1 1) rotate(0) translate(4 490)">
<title>Hypothetical</title>
<polygon fill="white" stroke="transparent" points="-4,4 -4,-490 680.5,-490 680.5,4 -4,4"/>
<!-- Fingerprint -->
<g id="node1" class="node">
<title>Fingerprint</title>
<polygon fill="#ccebc5" stroke="black" stroke-width="0" points="320.5,-36 243.5,-36 243.5,0 320.5,0 320.5,-36"/>
<text text-anchor="middle" x="282" y="-14.3" font-family="Times,serif" font-size="14.00">Fingerprint</text>
</g>
<!-- Phone -->
<g id="node9" class="node">
<title>Phone</title>
<polygon fill="#fed9a6" stroke="black" stroke-width="0" points="187,-126 133,-126 133,-90 187,-90 187,-126"/>
<text text-anchor="middle" x="160" y="-104.3" font-family="Times,serif" font-size="14.00">Phone</text>
</g>
<!-- Fingerprint&#45;&gt;Phone -->
<g id="edge6" class="edge">
<title>Fingerprint&#45;&gt;Phone</title>
<path fill="none" stroke="green" d="M252.25,-36.21C252.25,-62.51 252.25,-108 252.25,-108 252.25,-108 197.18,-108 197.18,-108"/>
<polygon fill="green" stroke="green" points="197.18,-104.5 187.18,-108 197.18,-111.5 197.18,-104.5"/>
</g>
<!-- Phone_PIN -->
<g id="node2" class="node">
<title>Phone_PIN</title>
<polygon fill="#fbb4ae" stroke="black" stroke-width="0" points="76,-36 0,-36 0,0 76,0 76,-36"/>
<text text-anchor="middle" x="38" y="-14.3" font-family="Times,serif" font-size="14.00">Phone PIN</text>
</g>
<!-- Phone_PIN&#45;&gt;Phone -->
<g id="edge4" class="edge">
<title>Phone_PIN&#45;&gt;Phone</title>
<path fill="none" stroke="red" d="M38,-36.21C38,-62.51 38,-108 38,-108 38,-108 122.92,-108 122.92,-108"/>
<polygon fill="red" stroke="red" points="122.92,-111.5 132.92,-108 122.92,-104.5 122.92,-111.5"/>
</g>
<!-- Password -->
<g id="node3" class="node">
<title>Password</title>
<polygon fill="#fbb4ae" stroke="black" stroke-width="0" points="329,-216 261,-216 261,-180 329,-180 329,-216"/>
<text text-anchor="middle" x="295" y="-194.3" font-family="Times,serif" font-size="14.00">Password</text>
</g>
<!-- Mail -->
<g id="node12" class="node">
<title>Mail</title>
<polygon fill="#b3cde3" stroke="black" stroke-width="0" points="218,-306 164,-306 164,-270 218,-270 218,-306"/>
<text text-anchor="middle" x="191" y="-284.3" font-family="Times,serif" font-size="14.00">Mail</text>
</g>
<!-- Password&#45;&gt;Mail -->
<g id="edge9" class="edge">
<title>Password&#45;&gt;Mail</title>
<path fill="none" stroke="black" d="M269.5,-216.21C269.5,-242.51 269.5,-288 269.5,-288 269.5,-288 228.02,-288 228.02,-288"/>
<polygon fill="none" stroke="black" points="228.02,-284.5 218.02,-288 228.02,-291.5 228.02,-284.5"/>
</g>
<!-- Ecommerce -->
<g id="node14" class="node">
<title>Ecommerce</title>
<polygon fill="#b3cde3" stroke="black" stroke-width="0" points="286.5,-486 203.5,-486 203.5,-450 286.5,-450 286.5,-486"/>
<text text-anchor="middle" x="245" y="-464.3" font-family="Times,serif" font-size="14.00">Ecommerce</text>
</g>
<!-- Password&#45;&gt;Ecommerce -->
<g id="edge14" class="edge">
<title>Password&#45;&gt;Ecommerce</title>
<path fill="none" stroke="black" d="M278,-216.13C278,-216.13 278,-439.94 278,-439.94"/>
<polygon fill="none" stroke="black" points="274.5,-439.94 278,-449.94 281.5,-439.94 274.5,-439.94"/>
</g>
<!-- SMS_Code -->
<g id="node4" class="node">
<title>SMS_Code</title>
<polygon fill="#fbb4ae" stroke="black" stroke-width="0" points="224.5,-216 147.5,-216 147.5,-180 224.5,-180 224.5,-216"/>
<text text-anchor="middle" x="186" y="-194.3" font-family="Times,serif" font-size="14.00">SMS Code</text>
</g>
<!-- SMS_Code&#45;&gt;Mail -->
<g id="edge10" class="edge">
<title>SMS_Code&#45;&gt;Mail</title>
<path fill="none" stroke="black" stroke-dasharray="5,2" d="M191,-216.21C191,-216.21 191,-259.81 191,-259.81"/>
<polygon fill="none" stroke="black" points="187.5,-259.81 191,-269.81 194.5,-259.81 187.5,-259.81"/>
</g>
<!-- ATM_Card_PIN -->
<g id="node5" class="node">
<title>ATM_Card_PIN</title>
<polygon fill="#fbb4ae" stroke="black" stroke-width="0" points="499.5,-36 398.5,-36 398.5,0 499.5,0 499.5,-36"/>
<text text-anchor="middle" x="449" y="-14.3" font-family="Times,serif" font-size="14.00">ATM Card PIN</text>
</g>
<!-- ATM_Card -->
<g id="node10" class="node">
<title>ATM_Card</title>
<polygon fill="#fed9a6" stroke="black" stroke-width="0" points="487,-126 411,-126 411,-90 487,-90 487,-126"/>
<text text-anchor="middle" x="449" y="-104.3" font-family="Times,serif" font-size="14.00">ATM Card</text>
</g>
<!-- ATM_Card_PIN&#45;&gt;ATM_Card -->
<g id="edge8" class="edge">
<title>ATM_Card_PIN&#45;&gt;ATM_Card</title>
<path fill="none" stroke="black" d="M449,-36.21C449,-36.21 449,-79.81 449,-79.81"/>
<polygon fill="none" stroke="black" points="445.5,-79.81 449,-89.81 452.5,-79.81 445.5,-79.81"/>
</g>
<!-- Banking_OTP -->
<g id="node6" class="node">
<title>Banking_OTP</title>
<polygon fill="#fbb4ae" stroke="black" stroke-width="0" points="620,-216 528,-216 528,-180 620,-180 620,-216"/>
<text text-anchor="middle" x="574" y="-194.3" font-family="Times,serif" font-size="14.00">Banking OTP</text>
</g>
<!-- Banking -->
<g id="node15" class="node">
<title>Banking</title>
<polygon fill="#b3cde3" stroke="black" stroke-width="0" points="534,-306 472,-306 472,-270 534,-270 534,-306"/>
<text text-anchor="middle" x="503" y="-284.3" font-family="Times,serif" font-size="14.00">Banking</text>
</g>
<!-- Banking_OTP&#45;&gt;Banking -->
<g id="edge16" class="edge">
<title>Banking_OTP&#45;&gt;Banking</title>
<path fill="none" stroke="forestgreen" d="M527.92,-204C518.55,-204 511.5,-204 511.5,-204 511.5,-204 511.5,-259.77 511.5,-259.77"/>
<polygon fill="forestgreen" stroke="forestgreen" points="508,-259.77 511.5,-269.77 515,-259.77 508,-259.77"/>
</g>
<!-- Banking_Password -->
<g id="node7" class="node">
<title>Banking_Password</title>
<polygon fill="#fbb4ae" stroke="black" stroke-width="0" points="492,-216 374,-216 374,-180 492,-180 492,-216"/>
<text text-anchor="middle" x="433" y="-194.3" font-family="Times,serif" font-size="14.00">Banking Password</text>
</g>
<!-- Banking_Password&#45;&gt;Banking -->
<g id="edge15" class="edge">
<title>Banking_Password&#45;&gt;Banking</title>
<path fill="none" stroke="forestgreen" d="M482,-216.21C482,-216.21 482,-259.81 482,-259.81"/>
<polygon fill="forestgreen" stroke="forestgreen" points="478.5,-259.81 482,-269.81 485.5,-259.81 478.5,-259.81"/>
</g>
<!-- Locked_Phone -->
<g id="node8" class="node">
<title>Locked_Phone</title>
<polygon fill="#fed9a6" stroke="black" points="207.5,-36 112.5,-36 112.5,0 207.5,0 207.5,-36"/>
<polyline fill="none" stroke="black" points="124.5,-36 112.5,-24 "/>
<polyline fill="none" stroke="black" points="112.5,-12 124.5,0 "/>
<polyline fill="none" stroke="black" points="195.5,0 207.5,-12 "/>
<polyline fill="none" stroke="black" points="207.5,-24 195.5,-36 "/>
<text text-anchor="middle" x="160" y="-14.3" font-family="Times,serif" font-size="14.00">Locked Phone</text>
</g>
<!-- Locked_Phone&#45;&gt;Phone -->
<g id="edge5" class="edge">
<title>Locked_Phone&#45;&gt;Phone</title>
<path fill="none" stroke="red" d="M151,-36.21C151,-36.21 151,-79.81 151,-79.81"/>
<polygon fill="red" stroke="red" points="147.5,-79.81 151,-89.81 154.5,-79.81 147.5,-79.81"/>
</g>
<!-- Locked_Phone&#45;&gt;Phone -->
<g id="edge7" class="edge">
<title>Locked_Phone&#45;&gt;Phone</title>
<path fill="none" stroke="green" d="M169,-36.21C169,-36.21 169,-79.81 169,-79.81"/>
<polygon fill="green" stroke="green" points="165.5,-79.81 169,-89.81 172.5,-79.81 165.5,-79.81"/>
</g>
<!-- Phone&#45;&gt;SMS_Code -->
<g id="edge1" class="edge">
<title>Phone&#45;&gt;SMS_Code</title>
<path fill="none" stroke="black" d="M167.25,-126.21C167.25,-126.21 167.25,-169.81 167.25,-169.81"/>
<polygon fill="none" stroke="black" points="163.75,-169.81 167.25,-179.81 170.75,-169.81 163.75,-169.81"/>
</g>
<!-- Mail_data -->
<g id="node13" class="node">
<title>Mail_data</title>
<polygon fill="#b3cde3" stroke="black" stroke-width="0" points="225.5,-396 156.5,-396 156.5,-360 225.5,-360 225.5,-396"/>
<text text-anchor="middle" x="191" y="-374.3" font-family="Times,serif" font-size="14.00">Mail data</text>
</g>
<!-- Phone&#45;&gt;Mail_data -->
<g id="edge11" class="edge">
<title>Phone&#45;&gt;Mail_data</title>
<path fill="none" stroke="black" d="M140.25,-126.13C140.25,-186.67 140.25,-378 140.25,-378 140.25,-378 146.31,-378 146.31,-378"/>
<polygon fill="none" stroke="black" points="146.31,-381.5 156.31,-378 146.31,-374.5 146.31,-381.5"/>
</g>
<!-- ATM_Card&#45;&gt;Banking_OTP -->
<g id="edge2" class="edge">
<title>ATM_Card&#45;&gt;Banking_OTP</title>
<path fill="none" stroke="blue" d="M487.18,-108C492.25,-108 495.75,-108 495.75,-108 495.75,-108 495.75,-192 495.75,-192 495.75,-192 517.58,-192 517.58,-192"/>
<polygon fill="blue" stroke="blue" points="517.58,-195.5 527.58,-192 517.58,-188.5 517.58,-195.5"/>
</g>
<!-- Banking_Security_Device -->
<g id="node11" class="node">
<title>Banking_Security_Device</title>
<polygon fill="#fed9a6" stroke="black" stroke-width="0" points="676.5,-126 523.5,-126 523.5,-90 676.5,-90 676.5,-126"/>
<text text-anchor="middle" x="600" y="-104.3" font-family="Times,serif" font-size="14.00">Banking Security Device</text>
</g>
<!-- Banking_Security_Device&#45;&gt;Banking_OTP -->
<g id="edge3" class="edge">
<title>Banking_Security_Device&#45;&gt;Banking_OTP</title>
<path fill="none" stroke="blue" d="M574,-126.21C574,-126.21 574,-169.81 574,-169.81"/>
<polygon fill="blue" stroke="blue" points="570.5,-169.81 574,-179.81 577.5,-169.81 570.5,-169.81"/>
</g>
<!-- Mail&#45;&gt;Mail_data -->
<g id="edge12" class="edge">
<title>Mail&#45;&gt;Mail_data</title>
<path fill="none" stroke="black" d="M191,-306.21C191,-306.21 191,-349.81 191,-349.81"/>
<polygon fill="none" stroke="black" points="187.5,-349.81 191,-359.81 194.5,-349.81 187.5,-349.81"/>
</g>
<!-- Mail_data&#45;&gt;Ecommerce -->
<g id="edge13" class="edge">
<title>Mail_data&#45;&gt;Ecommerce</title>
<path fill="none" stroke="black" stroke-dasharray="5,2" d="M214.5,-396.21C214.5,-396.21 214.5,-439.81 214.5,-439.81"/>
<polygon fill="none" stroke="black" points="211,-439.81 214.5,-449.81 218,-439.81 211,-439.81"/>
</g>
</g>
</svg>
