<?xml version="1.0" encoding="UTF-8" standalone="no"?>
<!DOCTYPE svg PUBLIC "-//W3C//DTD SVG 1.1//EN"
 "http://www.w3.org/Graphics/SVG/1.1/DTD/svg11.dtd">
<!-- Generated by graphviz version 2.43.0 (0)
 -->
<!-- Title: MatHonan Pages: 1 -->
<svg width="762pt" height="494pt"
 viewBox="0.00 0.00 761.50 494.00" xmlns="http://www.w3.org/2000/svg" xmlns:xlink="http://www.w3.org/1999/xlink">
<g id="graph0" class="graph" transform="scale(1 1) rotate(0) translate(4 490)">
<title>MatHonan</title>
<polygon fill="white" stroke="transparent" points="-4,4 -4,-490 757.5,-490 757.5,4 -4,4"/>
<!-- iPhone_locked -->
<g id="node1" class="node">
<title>iPhone_locked</title>
<polygon fill="#fed9a6" stroke="black" points="634.5,-126 537.5,-126 537.5,-90 634.5,-90 634.5,-126"/>
<polyline fill="none" stroke="black" points="549.5,-126 537.5,-114 "/>
<polyline fill="none" stroke="black" points="537.5,-102 549.5,-90 "/>
<polyline fill="none" stroke="black" points="622.5,-90 634.5,-102 "/>
<polyline fill="none" stroke="black" points="634.5,-114 622.5,-126 "/>
<text text-anchor="middle" x="586" y="-104.3" font-family="Times,serif" font-size="14.00">iPhone_locked</text>
</g>
<!-- iPhone -->
<g id="node3" class="node">
<title>iPhone</title>
<polygon fill="#fed9a6" stroke="black" stroke-width="0" points="546,-216 492,-216 492,-180 546,-180 546,-216"/>
<text text-anchor="middle" x="519" y="-194.3" font-family="Times,serif" font-size="14.00">iPhone</text>
</g>
<!-- iPhone_locked&#45;&gt;iPhone -->
<g id="edge2" class="edge">
<title>iPhone_locked&#45;&gt;iPhone</title>
<path fill="none" stroke="blue" d="M541.75,-126.21C541.75,-126.21 541.75,-169.81 541.75,-169.81"/>
<polygon fill="blue" stroke="blue" points="538.25,-169.81 541.75,-179.81 545.25,-169.81 538.25,-169.81"/>
</g>
<!-- iPad_locked -->
<g id="node2" class="node">
<title>iPad_locked</title>
<polygon fill="#fed9a6" stroke="black" points="753.5,-126 670.5,-126 670.5,-90 753.5,-90 753.5,-126"/>
<polyline fill="none" stroke="black" points="682.5,-126 670.5,-114 "/>
<polyline fill="none" stroke="black" points="670.5,-102 682.5,-90 "/>
<polyline fill="none" stroke="black" points="741.5,-90 753.5,-102 "/>
<polyline fill="none" stroke="black" points="753.5,-114 741.5,-126 "/>
<text text-anchor="middle" x="712" y="-104.3" font-family="Times,serif" font-size="14.00">iPad_locked</text>
</g>
<!-- iPad -->
<g id="node4" class="node">
<title>iPad</title>
<polygon fill="#fed9a6" stroke="black" stroke-width="0" points="636,-216 582,-216 582,-180 636,-180 636,-216"/>
<text text-anchor="middle" x="609" y="-194.3" font-family="Times,serif" font-size="14.00">iPad</text>
</g>
<!-- iPad_locked&#45;&gt;iPad -->
<g id="edge4" class="edge">
<title>iPad_locked&#45;&gt;iPad</title>
<path fill="none" stroke="blue" d="M712,-126.21C712,-152.51 712,-198 712,-198 712,-198 646.06,-198 646.06,-198"/>
<polygon fill="blue" stroke="blue" points="646.06,-194.5 636.06,-198 646.06,-201.5 646.06,-194.5"/>
</g>
<!-- iCloud -->
<g id="node7" class="node">
<title>iCloud</title>
<polygon fill="#b3cde3" stroke="black" stroke-width="0" points="380,-306 326,-306 326,-270 380,-270 380,-306"/>
<text text-anchor="middle" x="353" y="-284.3" font-family="Times,serif" font-size="14.00">iCloud</text>
</g>
<!-- iPhone&#45;&gt;iCloud -->
<g id="edge11" class="edge">
<title>iPhone&#45;&gt;iCloud</title>
<path fill="none" stroke="black" d="M510,-216.03C510,-241.51 510,-285 510,-285 510,-285 390.35,-285 390.35,-285"/>
<polygon fill="none" stroke="black" points="390.35,-281.5 380.35,-285 390.35,-288.5 390.35,-281.5"/>
</g>
<!-- Twitter -->
<g id="node8" class="node">
<title>Twitter</title>
<polygon fill="#b3cde3" stroke="black" stroke-width="0" points="465,-486 409,-486 409,-450 465,-450 465,-486"/>
<text text-anchor="middle" x="437" y="-464.3" font-family="Times,serif" font-size="14.00">Twitter</text>
</g>
<!-- iPhone&#45;&gt;Twitter -->
<g id="edge15" class="edge">
<title>iPhone&#45;&gt;Twitter</title>
<path fill="none" stroke="black" d="M528,-216.13C528,-276.67 528,-468 528,-468 528,-468 475.29,-468 475.29,-468"/>
<polygon fill="none" stroke="black" points="475.29,-464.5 465.29,-468 475.29,-471.5 475.29,-464.5"/>
</g>
<!-- Gmail -->
<g id="node10" class="node">
<title>Gmail</title>
<polygon fill="#b3cde3" stroke="black" stroke-width="0" points="464,-396 410,-396 410,-360 464,-360 464,-396"/>
<text text-anchor="middle" x="437" y="-374.3" font-family="Times,serif" font-size="14.00">Gmail</text>
</g>
<!-- iPhone&#45;&gt;Gmail -->
<g id="edge21" class="edge">
<title>iPhone&#45;&gt;Gmail</title>
<path fill="none" stroke="black" d="M491.92,-198C476.41,-198 460,-198 460,-198 460,-198 460,-349.75 460,-349.75"/>
<polygon fill="none" stroke="black" points="456.5,-349.75 460,-359.75 463.5,-349.75 456.5,-349.75"/>
</g>
<!-- iPad&#45;&gt;iCloud -->
<g id="edge12" class="edge">
<title>iPad&#45;&gt;iCloud</title>
<path fill="none" stroke="black" d="M600,-216.12C600,-243.44 600,-292 600,-292 600,-292 390.38,-292 390.38,-292"/>
<polygon fill="none" stroke="black" points="390.38,-288.5 380.38,-292 390.38,-295.5 390.38,-288.5"/>
</g>
<!-- iPad&#45;&gt;Gmail -->
<g id="edge22" class="edge">
<title>iPad&#45;&gt;Gmail</title>
<path fill="none" stroke="black" d="M618,-216.25C618,-262.01 618,-378 618,-378 618,-378 474.1,-378 474.1,-378"/>
<polygon fill="none" stroke="black" points="474.1,-374.5 464.1,-378 474.1,-381.5 474.1,-374.5"/>
</g>
<!-- Apple_Support -->
<g id="node5" class="node">
<title>Apple_Support</title>
<polygon fill="#f2f2f2" stroke="black" stroke-width="0" points="189.5,-216 90.5,-216 90.5,-180 189.5,-180 189.5,-216"/>
<text text-anchor="middle" x="140" y="-194.3" font-family="Times,serif" font-size="14.00">Apple_Support</text>
</g>
<!-- Apple_Support&#45;&gt;iCloud -->
<g id="edge6" class="edge">
<title>Apple_Support&#45;&gt;iCloud</title>
<path fill="none" stroke="blue" stroke-dasharray="5,2" d="M156.5,-216.24C156.5,-223.43 156.5,-230 156.5,-230 156.5,-230 351.75,-230 351.75,-230 351.75,-230 351.75,-259.97 351.75,-259.97"/>
<polygon fill="blue" stroke="blue" points="348.25,-259.97 351.75,-269.97 355.25,-259.97 348.25,-259.97"/>
</g>
<!-- Apple_Support&#45;&gt;iCloud -->
<g id="edge9" class="edge">
<title>Apple_Support&#45;&gt;iCloud</title>
<path fill="none" stroke="red" stroke-dasharray="5,2" d="M123.5,-216.04C123.5,-228.56 123.5,-243 123.5,-243 123.5,-243 343.17,-243 343.17,-243 343.17,-243 343.17,-259.96 343.17,-259.96"/>
<polygon fill="red" stroke="red" points="339.67,-259.96 343.17,-269.96 346.67,-259.96 339.67,-259.96"/>
</g>
<!-- Amazon_Support -->
<g id="node6" class="node">
<title>Amazon_Support</title>
<polygon fill="#f2f2f2" stroke="black" stroke-width="0" points="237.5,-36 124.5,-36 124.5,0 237.5,0 237.5,-36"/>
<text text-anchor="middle" x="181" y="-14.3" font-family="Times,serif" font-size="14.00">Amazon_Support</text>
</g>
<!-- Amazon -->
<g id="node9" class="node">
<title>Amazon</title>
<polygon fill="#b3cde3" stroke="black" stroke-width="0" points="201.5,-126 138.5,-126 138.5,-90 201.5,-90 201.5,-126"/>
<text text-anchor="middle" x="170" y="-104.3" font-family="Times,serif" font-size="14.00">Amazon</text>
</g>
<!-- Amazon_Support&#45;&gt;Amazon -->
<g id="edge17" class="edge">
<title>Amazon_Support&#45;&gt;Amazon</title>
<path fill="none" stroke="blue" stroke-dasharray="5,2" d="M159.5,-36.21C159.5,-36.21 159.5,-79.81 159.5,-79.81"/>
<polygon fill="blue" stroke="blue" points="156,-79.81 159.5,-89.81 163,-79.81 156,-79.81"/>
</g>
<!-- iCloud&#45;&gt;Gmail -->
<g id="edge20" class="edge">
<title>iCloud&#45;&gt;Gmail</title>
<path fill="none" stroke="black" stroke-dasharray="5,2" d="M380.26,-299C405.99,-299 440.67,-299 440.67,-299 440.67,-299 440.67,-349.68 440.67,-349.68"/>
<polygon fill="none" stroke="black" points="437.17,-349.68 440.67,-359.68 444.17,-349.68 437.17,-349.68"/>
</g>
<!-- CC_num -->
<g id="node11" class="node">
<title>CC_num</title>
<polygon fill="#fbb4ae" stroke="black" stroke-width="0" points="292,-216 226,-216 226,-180 292,-180 292,-216"/>
<text text-anchor="middle" x="259" y="-194.3" font-family="Times,serif" font-size="14.00">CC_num</text>
</g>
<!-- Amazon&#45;&gt;CC_num -->
<g id="edge23" class="edge">
<title>Amazon&#45;&gt;CC_num</title>
<path fill="none" stroke="black" d="M201.6,-108C216.79,-108 231.75,-108 231.75,-108 231.75,-108 231.75,-169.79 231.75,-169.79"/>
<polygon fill="none" stroke="black" points="228.25,-169.79 231.75,-179.79 235.25,-169.79 228.25,-169.79"/>
</g>
<!-- Gmail&#45;&gt;Twitter -->
<g id="edge14" class="edge">
<title>Gmail&#45;&gt;Twitter</title>
<path fill="none" stroke="black" stroke-dasharray="5,2" d="M437,-396.21C437,-396.21 437,-439.81 437,-439.81"/>
<polygon fill="none" stroke="black" points="433.5,-439.81 437,-449.81 440.5,-439.81 433.5,-439.81"/>
</g>
<!-- CC_num&#45;&gt;iCloud -->
<g id="edge7" class="edge">
<title>CC_num&#45;&gt;iCloud</title>
<path fill="none" stroke="blue" stroke-dasharray="5,2" d="M292.18,-198C321.73,-198 360.33,-198 360.33,-198 360.33,-198 360.33,-259.79 360.33,-259.79"/>
<polygon fill="blue" stroke="blue" points="356.83,-259.79 360.33,-269.79 363.83,-259.79 356.83,-259.79"/>
</g>
<!-- pwd1 -->
<g id="node12" class="node">
<title>pwd1</title>
<polygon fill="#fbb4ae" stroke="black" stroke-width="0" points="54,-216 0,-216 0,-180 54,-180 54,-216"/>
<text text-anchor="middle" x="27" y="-194.3" font-family="Times,serif" font-size="14.00">pwd1</text>
</g>
<!-- pwd1&#45;&gt;iCloud -->
<g id="edge5" class="edge">
<title>pwd1&#45;&gt;iCloud</title>
<path fill="none" stroke="black" d="M27,-216.02C27,-233.37 27,-257 27,-257 27,-257 334.58,-257 334.58,-257 334.58,-257 334.58,-259.97 334.58,-259.97"/>
<polygon fill="none" stroke="black" points="331.08,-259.97 334.58,-269.97 338.08,-259.97 331.08,-259.97"/>
</g>
<!-- pwd2 -->
<g id="node13" class="node">
<title>pwd2</title>
<polygon fill="#fbb4ae" stroke="black" stroke-width="0" points="88,-36 34,-36 34,0 88,0 88,-36"/>
<text text-anchor="middle" x="61" y="-14.3" font-family="Times,serif" font-size="14.00">pwd2</text>
</g>
<!-- pwd2&#45;&gt;Amazon -->
<g id="edge16" class="edge">
<title>pwd2&#45;&gt;Amazon</title>
<path fill="none" stroke="black" d="M71,-36.21C71,-62.51 71,-108 71,-108 71,-108 128.4,-108 128.4,-108"/>
<polygon fill="none" stroke="black" points="128.4,-111.5 138.4,-108 128.4,-104.5 128.4,-111.5"/>
</g>
<!-- pwd3 -->
<g id="node14" class="node">
<title>pwd3</title>
<polygon fill="#fbb4ae" stroke="black" stroke-width="0" points="374,-396 320,-396 320,-360 374,-360 374,-396"/>
<text text-anchor="middle" x="347" y="-374.3" font-family="Times,serif" font-size="14.00">pwd3</text>
</g>
<!-- pwd3&#45;&gt;Twitter -->
<g id="edge13" class="edge">
<title>pwd3&#45;&gt;Twitter</title>
<path fill="none" stroke="black" d="M347,-396.21C347,-422.51 347,-468 347,-468 347,-468 398.52,-468 398.52,-468"/>
<polygon fill="none" stroke="black" points="398.52,-471.5 408.52,-468 398.52,-464.5 398.52,-471.5"/>
</g>
<!-- pwd4 -->
<g id="node15" class="node">
<title>pwd4</title>
<polygon fill="#fbb4ae" stroke="black" stroke-width="0" points="290,-306 236,-306 236,-270 290,-270 290,-306"/>
<text text-anchor="middle" x="263" y="-284.3" font-family="Times,serif" font-size="14.00">pwd4</text>
</g>
<!-- pwd4&#45;&gt;Gmail -->
<g id="edge19" class="edge">
<title>pwd4&#45;&gt;Gmail</title>
<path fill="none" stroke="black" d="M263,-306.04C263,-318.56 263,-333 263,-333 263,-333 425.33,-333 425.33,-333 425.33,-333 425.33,-349.96 425.33,-349.96"/>
<polygon fill="none" stroke="black" points="421.83,-349.96 425.33,-359.96 428.83,-349.96 421.83,-349.96"/>
</g>
<!-- secQ -->
<g id="node16" class="node">
<title>secQ</title>
<polygon fill="#fbb4ae" stroke="black" stroke-width="0" points="456,-216 402,-216 402,-180 456,-180 456,-216"/>
<text text-anchor="middle" x="429" y="-194.3" font-family="Times,serif" font-size="14.00">secQ</text>
</g>
<!-- secQ&#45;&gt;iCloud -->
<g id="edge10" class="edge">
<title>secQ&#45;&gt;iCloud</title>
<path fill="none" stroke="red" stroke-dasharray="5,2" d="M405.5,-216.15C405.5,-239.76 405.5,-278 405.5,-278 405.5,-278 390.17,-278 390.17,-278"/>
<polygon fill="red" stroke="red" points="390.17,-274.5 380.17,-278 390.17,-281.5 390.17,-274.5"/>
</g>
<!-- PIN -->
<g id="node17" class="node">
<title>PIN</title>
<polygon fill="#fbb4ae" stroke="black" stroke-width="0" points="501,-126 447,-126 447,-90 501,-90 501,-126"/>
<text text-anchor="middle" x="474" y="-104.3" font-family="Times,serif" font-size="14.00">PIN</text>
</g>
<!-- PIN&#45;&gt;iPhone -->
<g id="edge1" class="edge">
<title>PIN&#45;&gt;iPhone</title>
<path fill="none" stroke="blue" d="M495,-126.21C495,-126.21 495,-169.81 495,-169.81"/>
<polygon fill="blue" stroke="blue" points="491.5,-169.81 495,-179.81 498.5,-169.81 491.5,-169.81"/>
</g>
<!-- PIN&#45;&gt;iPad -->
<g id="edge3" class="edge">
<title>PIN&#45;&gt;iPad</title>
<path fill="none" stroke="blue" d="M498,-126.04C498,-138.56 498,-153 498,-153 498,-153 608.25,-153 608.25,-153 608.25,-153 608.25,-169.96 608.25,-169.96"/>
<polygon fill="blue" stroke="blue" points="604.75,-169.96 608.25,-179.96 611.75,-169.96 604.75,-169.96"/>
</g>
<!-- billing_addr -->
<g id="node18" class="node">
<title>billing_addr</title>
<polygon fill="#fbb4ae" stroke="black" stroke-width="0" points="377.5,-36 294.5,-36 294.5,0 377.5,0 377.5,-36"/>
<text text-anchor="middle" x="336" y="-14.3" font-family="Times,serif" font-size="14.00">billing_addr</text>
</g>
<!-- billing_addr&#45;&gt;iCloud -->
<g id="edge8" class="edge">
<title>billing_addr&#45;&gt;iCloud</title>
<path fill="none" stroke="blue" stroke-dasharray="5,2" d="M368.92,-36.13C368.92,-36.13 368.92,-259.94 368.92,-259.94"/>
<polygon fill="blue" stroke="blue" points="365.42,-259.94 368.92,-269.94 372.42,-259.94 365.42,-259.94"/>
</g>
<!-- billing_addr&#45;&gt;Amazon -->
<g id="edge18" class="edge">
<title>billing_addr&#45;&gt;Amazon</title>
<path fill="none" stroke="blue" stroke-dasharray="5,2" d="M307.25,-36.04C307.25,-48.56 307.25,-63 307.25,-63 307.25,-63 180.5,-63 180.5,-63 180.5,-63 180.5,-79.96 180.5,-79.96"/>
<polygon fill="blue" stroke="blue" points="177,-79.96 180.5,-89.96 184,-79.96 177,-79.96"/>
</g>
<!-- CC -->
<g id="node19" class="node">
<title>CC</title>
<polygon fill="#fed9a6" stroke="black" stroke-width="0" points="292,-126 238,-126 238,-90 292,-90 292,-126"/>
<text text-anchor="middle" x="265" y="-104.3" font-family="Times,serif" font-size="14.00">CC</text>
</g>
<!-- CC&#45;&gt;CC_num -->
<g id="edge24" class="edge">
<title>CC&#45;&gt;CC_num</title>
<path fill="none" stroke="black" d="M265,-126.21C265,-126.21 265,-169.81 265,-169.81"/>
<polygon fill="none" stroke="black" points="261.5,-169.81 265,-179.81 268.5,-169.81 261.5,-169.81"/>
</g>
</g>
</svg>
