<svg width="484" height="135" viewBox="0 0 484 135" fill="none" xmlns="http://www.w3.org/2000/svg">
<rect width="484" height="135" fill="white"/>
<path d="M91.464 51.456H93.96L112.264 96H109.704L103.688 81.28H81.736L75.656 96H73.16L91.464 51.456ZM82.696 78.976H102.728L92.68 54.528L82.696 78.976ZM155.735 86.848C154.583 89.792 152.492 92.224 149.463 94.144C146.434 96.0213 143.191 96.96 139.735 96.96C136.407 96.96 133.335 96.128 130.519 94.464C127.703 92.8 125.463 90.5173 123.799 87.616C122.178 84.672 121.367 81.4507 121.367 77.952V68.992C121.367 65.5787 122.178 62.464 123.799 59.648C125.463 56.832 127.682 54.6133 130.455 52.992C133.271 51.328 136.364 50.496 139.735 50.496C142.508 50.496 145.047 50.9653 147.351 51.904C149.655 52.8 151.618 54.1227 153.239 55.872C154.562 57.3227 155.628 58.944 156.439 60.736C157.292 62.528 157.719 64.3413 157.719 66.176H155.415C155.372 64.5973 154.967 63.04 154.199 61.504C153.474 59.968 152.535 58.5813 151.383 57.344C148.524 54.3573 144.642 52.864 139.735 52.864C136.791 52.864 134.082 53.5893 131.607 55.04C129.175 56.448 127.255 58.3893 125.847 60.864C124.439 63.296 123.735 66.0053 123.735 68.992V77.952C123.735 81.0667 124.439 83.904 125.847 86.464C127.298 88.9813 129.239 90.9653 131.671 92.416C134.146 93.8667 136.834 94.592 139.735 94.592C142.679 94.592 145.367 93.888 147.799 92.48C150.274 91.0293 152.215 89.088 153.623 86.656C155.031 84.1813 155.735 81.4933 155.735 78.592V76.352H139.735V73.984H158.103V96H155.735V86.848ZM205.414 51.456V53.824H188.582V96H186.278V53.824H169.446V51.456H205.414ZM234.805 50.496C238.133 50.496 241.205 51.328 244.021 52.992C246.837 54.6133 249.056 56.832 250.677 59.648C252.341 62.464 253.173 65.536 253.173 68.864V78.592C253.173 81.92 252.341 84.992 250.677 87.808C249.056 90.624 246.837 92.864 244.021 94.528C241.205 96.1493 238.133 96.96 234.805 96.96C231.477 96.96 228.405 96.1493 225.589 94.528C222.773 92.864 220.533 90.624 218.869 87.808C217.248 84.992 216.437 81.92 216.437 78.592V68.864C216.437 65.536 217.248 62.464 218.869 59.648C220.533 56.832 222.773 54.6133 225.589 52.992C228.405 51.328 231.477 50.496 234.805 50.496ZM218.805 78.592C218.805 81.4933 219.509 84.1813 220.917 86.656C222.368 89.088 224.309 91.0293 226.741 92.48C229.216 93.888 231.904 94.592 234.805 94.592C237.706 94.592 240.373 93.888 242.805 92.48C245.28 91.0293 247.221 89.088 248.629 86.656C250.08 84.1813 250.805 81.4933 250.805 78.592V68.864C250.805 65.9627 250.08 63.296 248.629 60.864C247.221 58.3893 245.28 56.448 242.805 55.04C240.373 53.5893 237.706 52.864 234.805 52.864C231.904 52.864 229.216 53.5893 226.741 55.04C224.309 56.448 222.368 58.3893 220.917 60.864C219.509 63.296 218.805 65.9627 218.805 68.864V78.592ZM282.18 50.496C285.508 50.496 288.58 51.328 291.396 52.992C294.212 54.6133 296.431 56.832 298.052 59.648C299.716 62.464 300.548 65.536 300.548 68.864V78.592C300.548 81.92 299.716 84.992 298.052 87.808C296.431 90.624 294.212 92.864 291.396 94.528C288.58 96.1493 285.508 96.96 282.18 96.96C278.852 96.96 275.78 96.1493 272.964 94.528C270.148 92.864 267.908 90.624 266.244 87.808C264.623 84.992 263.812 81.92 263.812 78.592V68.864C263.812 65.536 264.623 62.464 266.244 59.648C267.908 56.832 270.148 54.6133 272.964 52.992C275.78 51.328 278.852 50.496 282.18 50.496ZM266.18 78.592C266.18 81.4933 266.884 84.1813 268.292 86.656C269.743 89.088 271.684 91.0293 274.116 92.48C276.591 93.888 279.279 94.592 282.18 94.592C285.081 94.592 287.748 93.888 290.18 92.48C292.655 91.0293 294.596 89.088 296.004 86.656C297.455 84.1813 298.18 81.4933 298.18 78.592V68.864C298.18 65.9627 297.455 63.296 296.004 60.864C294.596 58.3893 292.655 56.448 290.18 55.04C287.748 53.5893 285.081 52.864 282.18 52.864C279.279 52.864 276.591 53.5893 274.116 55.04C271.684 56.448 269.743 58.3893 268.292 60.864C266.884 63.296 266.18 65.9627 266.18 68.864V78.592ZM315.795 96V51.456H318.163V93.632H349.203V96H315.795Z" fill="black"/>
<path d="M359.825 112.5L371.303 90.5H446.159L434.203 112.5H359.825Z" fill="black" stroke="black"/>
<path d="M49 77H48L49 78V77ZM71.7735 77L66 71.2265L60.2265 77L66 82.7735L71.7735 77ZM48 0V77H50L50 0L48 0ZM49 78H66V76H49V78Z" fill="black"/>
<path d="M427 105C427 105 435 101 435 95V88L427 85L419 88V95C419 101 427 105 427 105Z" stroke="white" stroke-width="2" stroke-linecap="round" stroke-linejoin="round"/>
<path d="M419 90V88L427 85L435 88V90" stroke="black" stroke-width="2" stroke-linejoin="round"/>
</svg>
